{
	"patcher" : 	{
		"fileversion" : 1,
		"rect" : [ -1.0, 44.0, 1436.0, 856.0 ],
		"bglocked" : 0,
		"defrect" : [ -1.0, 44.0, 1436.0, 856.0 ],
		"openrect" : [ 0.0, 0.0, 0.0, 0.0 ],
		"openinpresentation" : 1,
		"default_fontsize" : 12.0,
		"default_fontface" : 0,
		"default_fontname" : "Arial",
		"gridonopen" : 0,
		"gridsize" : [ 15.0, 15.0 ],
		"gridsnaponopen" : 0,
		"toolbarvisible" : 0,
		"boxanimatetime" : 200,
		"imprint" : 0,
		"boxes" : [ 			{
				"box" : 				{
					"fontname" : "Arial",
					"fontsize" : 9.0,
					"hidden" : 1,
					"id" : "obj-1",
					"maxclass" : "newobj",
					"numinlets" : 1,
					"numoutlets" : 4,
					"outlettype" : [ "", "", "", "" ],
					"patching_rect" : [ 458.0, 259.0, 118.0, 17.0 ],
					"restore" : 					{
						"ubumenu" : [ 3 ]
					}
,
					"text" : "autopattr grain_window",
					"varname" : "grain_window"
				}

			}
, 			{
				"box" : 				{
					"comment" : "window index out",
					"hidden" : 1,
					"id" : "obj-2",
					"maxclass" : "outlet",
					"numinlets" : 1,
					"numoutlets" : 0,
					"patching_rect" : [ 576.0, 412.0, 15.0, 15.0 ]
				}

			}
, 			{
				"box" : 				{
					"comment" : "window name",
					"hidden" : 1,
					"id" : "obj-6",
					"maxclass" : "outlet",
					"numinlets" : 1,
					"numoutlets" : 0,
					"patching_rect" : [ 551.0, 412.0, 15.0, 15.0 ]
				}

			}
, 			{
				"box" : 				{
					"comment" : "set \\\"window\\\"",
					"hidden" : 1,
					"id" : "obj-7",
					"maxclass" : "outlet",
					"numinlets" : 1,
					"numoutlets" : 0,
					"patching_rect" : [ 522.0, 412.0, 15.0, 15.0 ]
				}

			}
, 			{
				"box" : 				{
					"comment" : "select window",
					"hidden" : 1,
					"id" : "obj-8",
					"maxclass" : "inlet",
					"numinlets" : 0,
					"numoutlets" : 1,
					"outlettype" : [ "" ],
					"patching_rect" : [ 639.0, 251.0, 15.0, 15.0 ]
				}

			}
, 			{
				"box" : 				{
					"fontname" : "Arial",
					"fontsize" : 9.0,
					"hidden" : 1,
					"id" : "obj-9",
					"maxclass" : "newobj",
					"numinlets" : 1,
					"numoutlets" : 1,
					"outlettype" : [ "bang" ],
					"patching_rect" : [ 437.0, 101.0, 157.0, 17.0 ],
					"text" : "loadbang"
				}

			}
, 			{
				"box" : 				{
					"fontname" : "Arial",
					"fontsize" : 9.0,
					"hidden" : 1,
					"id" : "obj-10",
					"maxclass" : "message",
					"numinlets" : 2,
					"numoutlets" : 1,
					"outlettype" : [ "" ],
					"patching_rect" : [ 390.0, 214.0, 173.0, 15.0 ],
					"text" : "mode select, clipdraw 1, voffset 1.,"
				}

			}
, 			{
				"box" : 				{
					"fontname" : "Arial",
					"fontsize" : 9.0,
					"hidden" : 1,
					"id" : "obj-11",
					"maxclass" : "newobj",
					"numinlets" : 1,
					"numoutlets" : 1,
					"outlettype" : [ "" ],
					"patching_rect" : [ 319.0, 299.0, 61.0, 17.0 ],
					"text" : "prepend set"
				}

			}
, 			{
				"box" : 				{
					"bgcolor" : [ 0.356863, 0.356863, 0.356863, 1.0 ],
					"bordercolor" : [ 0.909804, 0.533333, 0.0, 1.0 ],
					"buffername" : "blackman",
					"clipdraw" : 1,
					"grid" : 44100.0,
					"id" : "obj-12",
					"labelbgcolor" : [ 0.745098, 0.537255, 1.0, 1.0 ],
					"labels" : 0,
					"maxclass" : "waveform~",
					"numinlets" : 5,
					"numoutlets" : 6,
					"outlettype" : [ "float", "float", "float", "float", "list", "" ],
					"patching_rect" : [ 389.0, 319.0, 100.0, 50.0 ],
					"presentation" : 1,
					"presentation_rect" : [ 5.0, 18.0, 100.0, 50.0 ],
					"ruler" : 0,
					"selectioncolor" : [ 0.0, 0.372549, 1.0, 0.5 ],
					"setmode" : 1,
					"setunit" : 1,
					"textcolor" : [  ],
					"tickmarkcolor" : [ 0.392157, 0.392157, 0.392157, 1.0 ],
					"voffset" : 1.0,
					"vzoom" : 0.6,
					"waveformcolor" : [ 0.941176, 0.972549, 0.0, 1.0 ]
				}

			}
, 			{
				"box" : 				{
					"bgcolor" : [ 0.356863, 0.356863, 0.356863, 1.0 ],
					"bgcolor2" : [ 0.0, 0.0, 0.0, 1.0 ],
					"discolor" : [ 0.439216, 0.439216, 0.439216, 1.0 ],
					"fontname" : "Arial",
					"fontsize" : 9.0,
					"framecolor" : [ 0.839216, 0.431373, 0.0, 1.0 ],
					"hltcolor" : [ 0.356863, 0.356863, 0.356863, 1.0 ],
					"id" : "obj-13",
					"items" : [ "windows", ",", "ramp", ",", "triangle", ",", "blackman", ",", "hanning", ",", "blackman-harris", ",", "expoinc", ",", "expodec", ",", "linear-50%at1", ",", "linear-80%at1", ",", "linear-90%at1", ",", "taper", ",", "gauss", ",", "quasi-gauss", ",", "welch", ",", "pad-welch", ",", "harm", ",", "draw", ",", "draw2", ",", "draw3", ",", "draw4" ],
					"maxclass" : "umenu",
					"numinlets" : 1,
					"numoutlets" : 3,
					"outlettype" : [ "int", "", "" ],
					"patching_rect" : [ 389.0, 305.0, 100.0, 17.0 ],
					"presentation" : 1,
					"presentation_rect" : [ 5.0, 4.0, 100.0, 17.0 ],
					"textcolor" : [ 1.0, 0.941176, 0.035294, 1.0 ],
					"textcolor2" : [ 1.0, 0.941176, 0.035294, 1.0 ],
					"togcolor" : [ 0.552941, 0.552941, 0.552941, 1.0 ],
					"types" : [  ],
					"varname" : "ubumenu"
				}

			}
, 			{
				"box" : 				{
					"fontname" : "Arial",
					"fontsize" : 9.0,
					"hidden" : 1,
					"id" : "obj-14",
					"maxclass" : "newobj",
					"numinlets" : 1,
					"numoutlets" : 1,
					"outlettype" : [ "" ],
					"patching_rect" : [ 135.0, 387.0, 70.0, 17.0 ],
					"text" : "prepend mode"
				}

			}
, 			{
				"box" : 				{
					"fontname" : "Arial",
					"fontsize" : 9.0,
					"hidden" : 1,
					"id" : "obj-15",
					"maxclass" : "newobj",
					"numinlets" : 1,
					"numoutlets" : 1,
					"outlettype" : [ "draw" ],
					"patching_rect" : [ 135.0, 359.0, 39.0, 17.0 ],
					"text" : "t draw"
				}

			}
, 			{
				"box" : 				{
					"fontname" : "Arial",
					"fontsize" : 9.0,
					"hidden" : 1,
					"id" : "obj-16",
					"maxclass" : "newobj",
					"numinlets" : 1,
					"numoutlets" : 1,
					"outlettype" : [ "select" ],
					"patching_rect" : [ 272.0, 359.0, 43.0, 17.0 ],
					"text" : "t select"
				}

			}
, 			{
				"box" : 				{
					"fontname" : "Arial",
					"fontsize" : 9.0,
					"hidden" : 1,
					"id" : "obj-17",
					"maxclass" : "newobj",
					"numinlets" : 1,
					"numoutlets" : 5,
					"outlettype" : [ "bang", "bang", "bang", "bang", "" ],
					"patching_rect" : [ 134.0, 312.0, 144.0, 17.0 ],
					"text" : "sel draw draw2 draw3 draw4"
				}

			}
, 			{
				"box" : 				{
					"fontname" : "Arial",
					"fontsize" : 9.0,
					"hidden" : 1,
					"id" : "obj-20",
					"maxclass" : "newobj",
					"numinlets" : 0,
					"numoutlets" : 0,
					"patcher" : 					{
						"fileversion" : 1,
						"rect" : [ 10.0, 59.0, 631.0, 602.0 ],
						"bglocked" : 0,
						"defrect" : [ 10.0, 59.0, 631.0, 602.0 ],
						"openrect" : [ 0.0, 0.0, 0.0, 0.0 ],
						"openinpresentation" : 0,
						"default_fontsize" : 12.0,
						"default_fontface" : 0,
						"default_fontname" : "Arial",
						"gridonopen" : 0,
						"gridsize" : [ 15.0, 15.0 ],
						"gridsnaponopen" : 0,
						"toolbarvisible" : 1,
						"boxanimatetime" : 200,
						"imprint" : 0,
						"boxes" : [ 							{
								"box" : 								{
									"fontname" : "Arial",
									"fontsize" : 9.0,
									"id" : "obj-1",
									"maxclass" : "newobj",
									"numinlets" : 1,
									"numoutlets" : 2,
									"outlettype" : [ "float", "bang" ],
									"patching_rect" : [ 19.0, 424.0, 122.0, 17.0 ],
									"text" : "buffer~ harm harm.aif 11.61"
								}

							}
, 							{
								"box" : 								{
									"fontname" : "Arial",
									"fontsize" : 9.0,
									"id" : "obj-2",
									"maxclass" : "newobj",
									"numinlets" : 1,
									"numoutlets" : 2,
									"outlettype" : [ "float", "bang" ],
									"patching_rect" : [ 19.0, 402.0, 91.0, 17.0 ],
									"text" : "buffer~ draw4 11.61"
								}

							}
, 							{
								"box" : 								{
									"fontname" : "Arial",
									"fontsize" : 9.0,
									"id" : "obj-3",
									"maxclass" : "newobj",
									"numinlets" : 1,
									"numoutlets" : 2,
									"outlettype" : [ "float", "bang" ],
									"patching_rect" : [ 19.0, 378.0, 91.0, 17.0 ],
									"text" : "buffer~ draw3 11.61"
								}

							}
, 							{
								"box" : 								{
									"fontname" : "Arial",
									"fontsize" : 9.0,
									"id" : "obj-4",
									"maxclass" : "newobj",
									"numinlets" : 1,
									"numoutlets" : 2,
									"outlettype" : [ "float", "bang" ],
									"patching_rect" : [ 19.0, 354.0, 91.0, 17.0 ],
									"text" : "buffer~ draw2 11.61"
								}

							}
, 							{
								"box" : 								{
									"fontname" : "Arial",
									"fontsize" : 9.0,
									"id" : "obj-5",
									"maxclass" : "newobj",
									"numinlets" : 1,
									"numoutlets" : 2,
									"outlettype" : [ "float", "bang" ],
									"patching_rect" : [ 19.0, 333.0, 86.0, 17.0 ],
									"text" : "buffer~ draw 11.61"
								}

							}
, 							{
								"box" : 								{
									"fontname" : "Arial",
									"fontsize" : 9.0,
									"id" : "obj-6",
									"maxclass" : "newobj",
									"numinlets" : 1,
									"numoutlets" : 2,
									"outlettype" : [ "float", "bang" ],
									"patching_rect" : [ 19.0, 313.0, 97.0, 17.0 ],
									"text" : "buffer~ ramp ramp.aif"
								}

							}
, 							{
								"box" : 								{
									"fontname" : "Andale Mono",
									"fontsize" : 9.0,
									"id" : "obj-7",
									"maxclass" : "newobj",
									"numinlets" : 1,
									"numoutlets" : 2,
									"outlettype" : [ "float", "bang" ],
									"patching_rect" : [ 19.0, 292.0, 135.0, 17.0 ],
									"text" : "buffer~ taper taper.aif"
								}

							}
, 							{
								"box" : 								{
									"fontname" : "Andale Mono",
									"fontsize" : 9.0,
									"id" : "obj-8",
									"maxclass" : "newobj",
									"numinlets" : 1,
									"numoutlets" : 2,
									"outlettype" : [ "float", "bang" ],
									"patching_rect" : [ 19.0, 273.0, 178.0, 17.0 ],
									"text" : "buffer~ pad-welch pad-welch.aif"
								}

							}
, 							{
								"box" : 								{
									"fontname" : "Andale Mono",
									"fontsize" : 9.0,
									"id" : "obj-9",
									"maxclass" : "newobj",
									"numinlets" : 1,
									"numoutlets" : 2,
									"outlettype" : [ "float", "bang" ],
									"patching_rect" : [ 19.0, 254.0, 135.0, 17.0 ],
									"text" : "buffer~ welch welch.aif"
								}

							}
, 							{
								"box" : 								{
									"fontname" : "Andale Mono",
									"fontsize" : 9.0,
									"id" : "obj-10",
									"maxclass" : "newobj",
									"numinlets" : 1,
									"numoutlets" : 2,
									"outlettype" : [ "float", "bang" ],
									"patching_rect" : [ 19.0, 230.0, 221.0, 17.0 ],
									"text" : "buffer~ linear-90%at1 linear-90%at1.aif"
								}

							}
, 							{
								"box" : 								{
									"fontname" : "Andale Mono",
									"fontsize" : 9.0,
									"id" : "obj-11",
									"maxclass" : "newobj",
									"numinlets" : 1,
									"numoutlets" : 2,
									"outlettype" : [ "float", "bang" ],
									"patching_rect" : [ 19.0, 211.0, 156.0, 17.0 ],
									"text" : "buffer~ expodec expodec.aif"
								}

							}
, 							{
								"box" : 								{
									"fontname" : "Andale Mono",
									"fontsize" : 9.0,
									"id" : "obj-12",
									"maxclass" : "newobj",
									"numinlets" : 1,
									"numoutlets" : 2,
									"outlettype" : [ "float", "bang" ],
									"patching_rect" : [ 19.0, 116.0, 221.0, 17.0 ],
									"text" : "buffer~ linear-50%at1 linear-50%at1.aif"
								}

							}
, 							{
								"box" : 								{
									"fontname" : "Andale Mono",
									"fontsize" : 9.0,
									"id" : "obj-13",
									"maxclass" : "newobj",
									"numinlets" : 1,
									"numoutlets" : 2,
									"outlettype" : [ "float", "bang" ],
									"patching_rect" : [ 19.0, 192.0, 200.0, 17.0 ],
									"text" : "buffer~ quasi-gauss quasi-gauss.aif"
								}

							}
, 							{
								"box" : 								{
									"fontname" : "Andale Mono",
									"fontsize" : 9.0,
									"id" : "obj-14",
									"maxclass" : "newobj",
									"numinlets" : 1,
									"numoutlets" : 2,
									"outlettype" : [ "float", "bang" ],
									"patching_rect" : [ 19.0, 174.0, 135.0, 17.0 ],
									"text" : "buffer~ gauss gauss.aif"
								}

							}
, 							{
								"box" : 								{
									"fontname" : "Andale Mono",
									"fontsize" : 9.0,
									"id" : "obj-15",
									"maxclass" : "newobj",
									"numinlets" : 1,
									"numoutlets" : 2,
									"outlettype" : [ "float", "bang" ],
									"patching_rect" : [ 19.0, 154.0, 156.0, 17.0 ],
									"text" : "buffer~ expoinc expoinc.aif"
								}

							}
, 							{
								"box" : 								{
									"fontname" : "Andale Mono",
									"fontsize" : 9.0,
									"id" : "obj-16",
									"maxclass" : "newobj",
									"numinlets" : 1,
									"numoutlets" : 2,
									"outlettype" : [ "float", "bang" ],
									"patching_rect" : [ 19.0, 135.0, 221.0, 17.0 ],
									"text" : "buffer~ linear-80%at1 linear-80%at1.aif"
								}

							}
, 							{
								"box" : 								{
									"fontname" : "Andale Mono",
									"fontsize" : 9.0,
									"id" : "obj-17",
									"maxclass" : "newobj",
									"numinlets" : 1,
									"numoutlets" : 2,
									"outlettype" : [ "float", "bang" ],
									"patching_rect" : [ 19.0, 22.0, 167.0, 17.0 ],
									"text" : "buffer~ triangle triangle.aif"
								}

							}
, 							{
								"box" : 								{
									"fontname" : "Andale Mono",
									"fontsize" : 9.0,
									"id" : "obj-18",
									"maxclass" : "newobj",
									"numinlets" : 1,
									"numoutlets" : 2,
									"outlettype" : [ "float", "bang" ],
									"patching_rect" : [ 19.0, 97.0, 243.0, 17.0 ],
									"text" : "buffer~ blackman-harris blackman-harris.aif"
								}

							}
, 							{
								"box" : 								{
									"fontname" : "Andale Mono",
									"fontsize" : 9.0,
									"id" : "obj-19",
									"maxclass" : "newobj",
									"numinlets" : 1,
									"numoutlets" : 2,
									"outlettype" : [ "float", "bang" ],
									"patching_rect" : [ 19.0, 78.0, 156.0, 17.0 ],
									"text" : "buffer~ hanning hanning.aif"
								}

							}
, 							{
								"box" : 								{
									"fontname" : "Andale Mono",
									"fontsize" : 9.0,
									"id" : "obj-20",
									"maxclass" : "newobj",
									"numinlets" : 1,
									"numoutlets" : 2,
									"outlettype" : [ "float", "bang" ],
									"patching_rect" : [ 19.0, 59.0, 167.0, 17.0 ],
									"text" : "buffer~ blackman blackman.aif"
								}

							}
, 							{
								"box" : 								{
									"fontname" : "Andale Mono",
									"fontsize" : 9.0,
									"id" : "obj-21",
									"maxclass" : "newobj",
									"numinlets" : 1,
									"numoutlets" : 2,
									"outlettype" : [ "float", "bang" ],
									"patching_rect" : [ 19.0, 40.0, 156.0, 17.0 ],
									"text" : "buffer~ hamming hamming.aif"
								}

							}
 ],
						"lines" : [  ]
					}
,
					"patching_rect" : [ 662.0, 411.0, 85.0, 17.0 ],
					"saved_object_attributes" : 					{
						"globalpatchername" : "",
						"fontface" : 0,
						"fontsize" : 12.0,
						"default_fontface" : 0,
						"default_fontname" : "Arial",
						"default_fontsize" : 12.0,
						"fontname" : "Arial"
					}
,
					"text" : "p buffersarehere"
				}

			}
 ],
		"lines" : [ 			{
				"patchline" : 				{
					"destination" : [ "obj-2", 0 ],
					"hidden" : 1,
					"midpoints" : [ 398.5, 410.0, 585.0, 410.0 ],
					"source" : [ "obj-13", 0 ]
				}

			}
, 			{
				"patchline" : 				{
					"destination" : [ "obj-6", 0 ],
					"hidden" : 1,
					"midpoints" : [ 439.0, 411.0, 560.0, 411.0 ],
					"source" : [ "obj-13", 1 ]
				}

			}
, 			{
				"patchline" : 				{
					"destination" : [ "obj-7", 0 ],
					"hidden" : 1,
					"midpoints" : [ 328.5, 382.0, 531.0, 382.0 ],
					"source" : [ "obj-11", 0 ]
				}

			}
, 			{
				"patchline" : 				{
					"destination" : [ "obj-12", 0 ],
					"hidden" : 1,
					"midpoints" : [ 399.5, 302.0, 398.5, 302.0 ],
					"source" : [ "obj-10", 0 ]
				}

			}
, 			{
				"patchline" : 				{
					"destination" : [ "obj-12", 0 ],
					"hidden" : 1,
					"midpoints" : [ 144.5, 413.0, 125.5, 413.0, 125.5, 294.0, 398.5, 294.0 ],
					"source" : [ "obj-14", 0 ]
				}

			}
, 			{
				"patchline" : 				{
					"destination" : [ "obj-12", 0 ],
					"hidden" : 1,
					"midpoints" : [ 328.5, 324.0, 398.5, 324.0 ],
					"source" : [ "obj-11", 0 ]
				}

			}
, 			{
				"patchline" : 				{
					"destination" : [ "obj-13", 0 ],
					"hidden" : 1,
					"midpoints" : [  ],
					"source" : [ "obj-1", 0 ]
				}

			}
, 			{
				"patchline" : 				{
					"destination" : [ "obj-13", 0 ],
					"hidden" : 1,
					"midpoints" : [ 648.0, 302.0, 398.5, 302.0 ],
					"source" : [ "obj-8", 0 ]
				}

			}
, 			{
				"patchline" : 				{
					"destination" : [ "obj-10", 0 ],
					"hidden" : 1,
					"midpoints" : [ 446.5, 133.0, 399.5, 133.0 ],
					"source" : [ "obj-9", 0 ]
				}

			}
, 			{
				"patchline" : 				{
					"destination" : [ "obj-11", 0 ],
					"hidden" : 1,
					"midpoints" : [ 439.0, 287.0, 328.5, 287.0 ],
					"source" : [ "obj-13", 1 ]
				}

			}
, 			{
				"patchline" : 				{
					"destination" : [ "obj-16", 0 ],
					"hidden" : 1,
					"midpoints" : [ 268.5, 350.0, 281.5, 350.0 ],
					"source" : [ "obj-17", 4 ]
				}

			}
, 			{
				"patchline" : 				{
					"destination" : [ "obj-17", 0 ],
					"hidden" : 1,
					"midpoints" : [ 439.0, 292.0, 143.5, 292.0 ],
					"source" : [ "obj-13", 1 ]
				}

			}
, 			{
				"patchline" : 				{
					"destination" : [ "obj-14", 0 ],
					"hidden" : 1,
					"midpoints" : [ 281.5, 383.0, 144.5, 383.0 ],
					"source" : [ "obj-16", 0 ]
				}

			}
, 			{
				"patchline" : 				{
					"destination" : [ "obj-14", 0 ],
					"hidden" : 1,
					"midpoints" : [  ],
					"source" : [ "obj-15", 0 ]
				}

			}
, 			{
				"patchline" : 				{
					"destination" : [ "obj-15", 0 ],
					"hidden" : 1,
					"midpoints" : [ 143.5, 357.0, 144.5, 357.0 ],
					"source" : [ "obj-17", 0 ]
				}

			}
, 			{
				"patchline" : 				{
					"destination" : [ "obj-15", 0 ],
					"hidden" : 1,
					"midpoints" : [ 174.75, 350.0, 144.5, 350.0 ],
					"source" : [ "obj-17", 1 ]
				}

			}
, 			{
				"patchline" : 				{
					"destination" : [ "obj-15", 0 ],
					"hidden" : 1,
					"midpoints" : [ 206.0, 350.0, 144.5, 350.0 ],
					"source" : [ "obj-17", 2 ]
				}

			}
, 			{
				"patchline" : 				{
					"destination" : [ "obj-15", 0 ],
					"hidden" : 1,
					"midpoints" : [ 237.25, 350.0, 144.5, 350.0 ],
					"source" : [ "obj-17", 3 ]
				}

			}
 ]
	}

}
